<?xml version="1.0" encoding="utf-8"?>
<!-- Generator: Adobe Illustrator 28.1.0, SVG Export Plug-In . SVG Version: 6.00 Build 0)  -->
<svg version="1.1" id="Layer_1" xmlns="http://www.w3.org/2000/svg" xmlns:xlink="http://www.w3.org/1999/xlink" x="0px" y="0px"
	 viewBox="0 0 84 84" style="enable-background:new 0 0 84 84;" xml:space="preserve">
<style type="text/css">
	.st0{display:none;fill-rule:evenodd;clip-rule:evenodd;}
	.st1{fill:#FF7F3E;}
	.st2{fill:#FFF6E9;}
</style>
<path class="st0" d="M84,42c0,23.2-18.8,42-42,42S0,65.2,0,42S18.8,0,42,0S84,18.8,84,42z M9.5,42C9.5,60,24,74.5,42,74.5
	S74.5,60,74.5,42S60,9.5,42,9.5S9.5,24,9.5,42z M48.4,26.2c2.9,0,5.3,2.4,5.3,5.3s-2.4,5.3-5.3,5.3s-5.3-2.4-5.3-5.3
	S45.5,26.2,48.4,26.2z M42.3,36.8c0.1,0,0.3,0,0.4,0c1,1.1,2.4,2,4,2.3c0.6,0.8,0.9,1.8,0.9,2.9c0,2.9-2.3,5.2-5.2,5.2
	c-2.9,0-5.2-2.3-5.2-5.2S39.4,36.8,42.3,36.8z M34.8,39.8c-0.2,0.7-0.3,1.4-0.3,2.2c0,0.8,0.1,1.5,0.3,2.2C34,46,32.1,47.3,30,47.3
	c-2.9,0-5.3-2.4-5.3-5.3c0-2.9,2.4-5.3,5.3-5.3C32.1,36.7,34,38,34.8,39.8z M53.6,52.5c0-2.9-2.4-5.3-5.3-5.3c-0.1,0-0.2,0-0.4,0
	c-1.1,1.2-2.4,2-4,2.4c-0.6,0.8-0.9,1.8-0.9,2.9c0,2.9,2.4,5.3,5.3,5.3C51.3,57.8,53.6,55.4,53.6,52.5z M59.7,42
	c0-2.9-2.4-5.3-5.3-5.3c-0.1,0-0.3,0-0.4,0c-1,1.1-2.4,2-4,2.3c-0.1,0.2-0.3,0.5-0.4,0.7c0.2,0.7,0.3,1.4,0.3,2.2s-0.1,1.5-0.3,2.2
	c0.1,0.2,0.2,0.5,0.4,0.7c1.6,0.4,3,1.2,4,2.3c0.1,0,0.3,0,0.4,0C57.4,47.3,59.7,44.9,59.7,42z M40.9,50.3c-0.2,0.7-0.3,1.4-0.3,2.2
	c0,0.8,0.1,1.5,0.3,2.2c-0.8,1.8-2.7,3.1-4.8,3.1c-2.9,0-5.3-2.4-5.3-5.3c0-1.1,0.3-2.1,0.9-2.9c1.6-0.4,3-1.2,4-2.3
	c0.1,0,0.2,0,0.4,0c0.1,0,0.2,0,0.4,0c1.1,1.2,2.4,2,4,2.3C40.7,49.8,40.8,50,40.9,50.3z M40.5,34.4c0.2-0.2,0.3-0.5,0.4-0.7
	c-0.2-0.7-0.3-1.4-0.3-2.2c0-0.8,0.1-1.5,0.3-2.2c-0.8-1.8-2.7-3.1-4.8-3.1c-2.9,0-5.3,2.4-5.3,5.3c0,1.1,0.3,2.1,0.9,2.9
	c1.6,0.4,3,1.2,4,2.3c0.1,0,0.3,0,0.4,0c0.1,0,0.1,0,0.2,0c0.1,0,0.1,0,0.2,0C37.6,35.6,38.9,34.8,40.5,34.4z"/>
<path class="st1" d="M42,0L0,42v42h42l42-42V0H42z"/>
<path class="st2" d="M24.4,81.1c-6.4,0-11.4-2-14.8-5.8s-5.2-9.5-5.2-17c0-5,0.8-9.3,2.3-12.8c1.6-3.5,3.8-6.2,6.7-8.1
	c2.9-1.9,6.4-2.8,10.6-2.8c2.1,0,4.1,0.3,5.9,0.8c1.8,0.5,3.4,1.3,4.8,2.4c1.4,1.1,2.5,2.4,3.4,4c0.9,1.6,1.5,3.4,1.8,5.6l-8,2.1
	c-0.2-1.9-0.8-3.4-1.6-4.5c-0.8-1.1-1.9-1.9-3.1-2.3c-1.2-0.5-2.4-0.7-3.7-0.7c-1.9,0-3.5,0.4-4.9,1.3c-1.4,0.9-2.5,2.1-3.4,3.7
	c-0.8,1.6-1.5,3.4-1.9,5.3c-0.4,2-0.6,4.1-0.6,6.3c0,1.2,0.1,2.5,0.2,3.9c0.1,1.4,0.4,2.8,0.7,4h0.6c-0.1-2.5,0.3-4.7,1-6.4
	c0.8-1.7,1.8-3.2,3.1-4.2c1.3-1.1,2.8-1.9,4.3-2.3c1.6-0.5,3.2-0.7,4.8-0.7c2.4,0,4.7,0.5,6.8,1.5c2.1,1,3.8,2.5,5,4.5
	c1.3,2,1.9,4.5,1.9,7.6c0,1.8-0.3,3.6-0.9,5.4c-0.6,1.8-1.6,3.4-2.9,4.8c-1.3,1.4-3.1,2.6-5.2,3.4S27.4,81.1,24.4,81.1L24.4,81.1
	L24.4,81.1z M24,74.2c1.5,0,2.8-0.2,3.8-0.6c1.1-0.4,2-1,2.7-1.7c0.7-0.7,1.3-1.6,1.7-2.5c0.4-0.9,0.5-2,0.5-3
	c0-1.7-0.4-3.1-1.1-4.2c-0.7-1.1-1.7-2-2.9-2.6c-1.2-0.6-2.5-0.9-4-0.9c-1.7,0-3.1,0.4-4.5,1.1c-1.3,0.7-2.3,1.7-3.1,3
	C16.4,64,16,65.5,16,67.3c0,1.4,0.2,2.5,0.7,3.3c0.5,0.9,1.1,1.6,1.9,2.1c0.8,0.5,1.6,0.9,2.6,1.1C22.1,74.1,23,74.2,24,74.2
	L24,74.2z"/>
<path class="st2" d="M46.1,46.5V2.7h17.4c2.6,0,5,0.2,7,0.7c2.1,0.4,3.9,1.1,5.3,2.1c1.5,0.9,2.6,2.2,3.4,3.6s1.2,3.2,1.2,5.2
	c0,1.7-0.3,3.2-1,4.5c-0.7,1.3-1.8,2.3-3.3,3.1c-1.5,0.8-3.5,1.4-5.9,1.7v1c4.2,0.3,7.2,1.4,9.1,3.1s2.9,4.2,2.9,7.2
	c0,2.5-0.6,4.6-1.9,6.3c-1.3,1.7-3.2,3-5.7,3.9c-2.5,0.9-5.7,1.3-9.6,1.3H46.1L46.1,46.5z M54.1,21.5h7.3c3.7,0,6.5-0.5,8.3-1.5
	c1.8-1,2.7-2.6,2.7-4.6s-0.8-3.5-2.4-4.4c-1.6-0.9-4-1.4-7.2-1.4h-8.7L54.1,21.5L54.1,21.5L54.1,21.5z M54.1,39.6h11.2
	c3,0,5.2-0.5,6.7-1.4c1.4-0.9,2.2-2.4,2.2-4.4c0-2.3-0.9-4-2.8-5.2c-1.9-1.1-4.8-1.7-8.6-1.7h-8.6L54.1,39.6L54.1,39.6L54.1,39.6z"
	/>
</svg>
