<?xml version="1.0" encoding="UTF-8"?>
<svg id="Layer_1" data-name="Layer 1" xmlns="http://www.w3.org/2000/svg" viewBox="0 0 178.06 36.91">
  <defs>
    <style>
      .cls-1 {
        fill: #fff6e9;
      }

      .cls-1, .cls-2, .cls-3 {
        stroke-width: 0px;
      }

      .cls-2 {
        fill: #1351d8;
      }

      .cls-3 {
        fill: #ff7f3e;
      }
    </style>
  </defs>
  <path class="cls-2" d="M55.05,36.9h-10.47l-5.33-8.3H15.79l-5.33,8.3H0L23.68,0h7.69l23.68,36.9ZM33.6,19.79l-6.08-9.47-6.08,9.47h12.16Z"/>
  <path class="cls-2" d="M103.91,36.9h-12.51l-8.94-8.51c-.45.02-.89.03-1.34.03h-16.49v8.48h-8.81V.23h25.3c10.84,0,19.33,6.19,19.33,14.1,0,4.83-3.17,9.01-8.11,11.54l11.57,11.03h0ZM64.62,19.94h16.49c6.02,0,10.52-2.96,10.52-5.62s-4.5-5.62-10.52-5.62h-16.49v11.23Z"/>
  <path class="cls-2" d="M144.66,9.04h-18.43v27.87h-8.81V9.04h-16.85V.23h44.09v8.81Z"/>
  <path class="cls-3" d="M159.76.31l-18.3,18.3v18.3h18.3l18.3-18.3V.31h-18.3Z"/>
  <path class="cls-1" d="M152.09,35.65c-2.8,0-4.95-.85-6.45-2.54-1.5-1.69-2.25-4.16-2.25-7.42,0-2.19.34-4.06,1.01-5.59.68-1.54,1.65-2.71,2.92-3.53,1.27-.81,2.81-1.22,4.61-1.22.92,0,1.77.11,2.56.34.78.23,1.48.57,2.09,1.03.61.46,1.1,1.04,1.5,1.73.39.69.66,1.5.79,2.42l-3.49.91c-.1-.82-.33-1.47-.71-1.94-.37-.47-.82-.81-1.34-1.01-.52-.21-1.05-.31-1.6-.31-.82,0-1.53.19-2.13.57-.6.38-1.08.92-1.46,1.6-.37.69-.64,1.46-.82,2.32-.18.86-.26,1.77-.26,2.73,0,.51.03,1.07.09,1.69.06.62.16,1.2.29,1.75h.26c-.04-1.1.11-2.03.44-2.79.33-.76.78-1.38,1.35-1.85.57-.47,1.2-.81,1.89-1.01.69-.21,1.39-.31,2.07-.31,1.06,0,2.04.22,2.95.66.91.44,1.65,1.1,2.2,1.98.56.88.84,1.98.84,3.29,0,.8-.13,1.59-.4,2.36-.26.77-.69,1.47-1.26,2.1-.58.63-1.34,1.12-2.28,1.48-.94.36-2.09.54-3.44.54h0ZM151.92,32.62c.64,0,1.2-.09,1.67-.26.47-.18.86-.42,1.19-.73.32-.31.56-.68.72-1.09.16-.41.23-.85.23-1.32,0-.72-.16-1.34-.49-1.84-.32-.5-.74-.88-1.26-1.13-.52-.25-1.1-.38-1.75-.38-.73,0-1.37.16-1.94.47-.57.31-1.02.75-1.35,1.31-.33.56-.5,1.22-.5,1.98,0,.59.1,1.07.31,1.45.21.38.47.69.81.93.33.23.71.4,1.12.49.41.09.82.13,1.24.13Z"/>
  <path class="cls-1" d="M161.56,20.56V1.48h7.6c1.14,0,2.16.1,3.07.29.9.19,1.68.5,2.33.91.64.41,1.14.94,1.49,1.58.35.64.52,1.4.52,2.28,0,.75-.15,1.4-.45,1.95-.3.55-.78,1-1.43,1.36-.66.36-1.51.6-2.57.74v.43c1.81.14,3.14.59,3.98,1.37.84.78,1.26,1.83,1.26,3.14,0,1.1-.27,2.02-.82,2.76-.55.74-1.38,1.31-2.49,1.69-1.11.38-2.5.58-4.18.58h-8.3ZM165.03,9.66h3.18c1.62,0,2.82-.22,3.6-.67.78-.44,1.17-1.12,1.17-2.02s-.34-1.51-1.03-1.92c-.69-.41-1.73-.62-3.14-.62h-3.79v5.23h0ZM165.03,17.58h4.88c1.31,0,2.28-.21,2.91-.62.63-.41.94-1.06.94-1.92,0-1-.41-1.75-1.23-2.26-.82-.5-2.07-.75-3.75-.75h-3.76v5.55h0Z"/>
</svg>